<svg width="4599" height="1409" viewBox="0 0 4599 1409" fill="none" xmlns="http://www.w3.org/2000/svg">
<path 
d="M1992.31 1226.32V376.22H1644.22V185.987H2552.79V376.22H2206.17V1226.32H1992.31ZM2501.62 1226.32L2926.4 185.987H3172.72L3593.08 1226.32H3361.51L3256.79 952.863H2830.53L2724.33 1226.32H2501.62ZM2896.9 780.465H3191.89L3044.4 397.026L2896.9 780.465ZM4168.31 1241.18C4091.62 1241.18 4019.83 1227.81 3952.97 1201.06C3886.1 1173.32 3827.6 1135.17 3777.45 1086.62C3728.28 1038.07 3689.44 981.597 3660.93 917.195C3633.4 851.802 3619.63 781.455 3619.63 706.155C3619.63 629.864 3633.4 559.517 3660.93 495.115C3689.44 429.723 3728.78 372.752 3778.92 324.203C3829.07 275.654 3887.09 238.004 3952.97 211.252C4019.83 183.51 4091.62 169.639 4168.31 169.639C4225.35 169.639 4280.41 177.565 4333.51 193.418C4386.61 209.271 4435.77 231.563 4481 260.297C4527.22 289.03 4566.55 323.708 4599 364.33L4454.45 508.491C4417.09 461.924 4373.82 426.75 4324.66 402.971C4276.48 379.192 4224.36 367.303 4168.31 367.303C4122.1 367.303 4078.83 376.22 4038.52 394.054C3998.2 410.898 3963.29 434.677 3933.8 465.391C3904.3 495.115 3881.19 530.784 3864.47 572.397C3847.76 613.02 3839.4 657.606 3839.4 706.155C3839.4 753.713 3847.76 798.299 3864.47 839.913C3881.19 880.535 3904.79 916.204 3935.27 946.918C3965.75 976.642 4001.15 999.926 4041.47 1016.77C4082.77 1033.61 4127.51 1042.03 4175.69 1042.03C4229.77 1042.03 4280.41 1030.64 4327.61 1007.85C4374.81 985.064 4416.6 952.368 4452.98 909.764L4593.1 1049.47C4560.65 1089.1 4521.81 1123.28 4476.58 1152.01C4431.35 1180.75 4382.18 1203.04 4329.08 1218.89C4276.97 1233.75 4223.38 1241.18 4168.31 1241.18Z" fill="#F2EBFF"/>
<path
style="fill: #F2EBFF;"
 fill-rule="evenodd" clip-rule="evenodd" d="M1409.49 704.5C1409.49 1093.58 1093.97 1409 704.746 1409C315.526 1409 0 1093.58 0 704.5C0 315.415 315.526 0 704.746 0C1093.97 0 1409.49 315.415 1409.49 704.5ZM733.064 1193.3V523.065C733.064 506.812 746.245 493.636 762.504 493.636H1130.02C1167.55 493.636 1190.75 534.531 1171.5 566.732L787.773 1208.41C772.439 1234.05 733.064 1223.18 733.064 1193.3ZM676.426 885.18V214.941C676.426 185.067 637.051 174.199 621.717 199.84L237.993 841.514C218.737 873.714 241.944 914.61 279.472 914.61H646.986C663.245 914.61 676.426 901.434 676.426 885.18Z" fill="#F2EBFF"/>
</svg>
