<svg width="89" height="33" viewBox="0 0 89 33" fill="none" xmlns="http://www.w3.org/2000/svg">
<path d="M10.8811 31.6812V6.29421H0.564453V0.613211H27.4927V6.29421H17.2197V31.6812H10.8811ZM25.976 31.6812L38.5658 0.613211H45.8662L58.3249 31.6812H51.4617L48.3579 23.5147H35.7244L32.5769 31.6812H25.976ZM37.6915 18.3663H46.4345L42.063 6.91557L37.6915 18.3663ZM75.6728 32.125C73.3996 32.125 71.2722 31.7256 69.2904 30.9267C67.3087 30.0982 65.5747 28.959 64.0884 27.5092C62.6312 26.0594 61.4801 24.3728 60.6349 22.4496C59.8189 20.4967 59.4109 18.3959 59.4109 16.1472C59.4109 13.8689 59.8189 11.7681 60.6349 9.84483C61.4801 7.89199 62.6458 6.19065 64.1321 4.74081C65.6184 3.29097 67.3378 2.16661 69.2904 1.36772C71.2722 0.53924 73.3996 0.125 75.6728 0.125C77.3631 0.125 78.9951 0.361709 80.5688 0.835125C82.1426 1.30854 83.5997 1.97428 84.9403 2.83235C86.31 3.69042 87.4757 4.72602 88.4375 5.93915L84.1534 10.2443C83.046 8.85362 81.7637 7.80323 80.3065 7.0931C78.8785 6.38298 77.3339 6.02791 75.6728 6.02791C74.303 6.02791 73.0207 6.29421 71.8259 6.8268C70.631 7.32981 69.5964 8.03993 68.7222 8.95718C67.8479 9.84483 67.163 10.91 66.6676 12.1527C66.1721 13.3659 65.9244 14.6974 65.9244 16.1472C65.9244 17.5674 66.1721 18.8989 66.6676 20.1416C67.163 21.3548 67.8624 22.42 68.7659 23.3372C69.6693 24.2249 70.7184 24.9202 71.9133 25.4232C73.1373 25.9262 74.4633 26.1777 75.8913 26.1777C77.4942 26.1777 78.9951 25.8374 80.394 25.1569C81.7928 24.4764 83.0314 23.4999 84.1097 22.2276L88.2626 26.3996C87.3009 27.5832 86.1497 28.604 84.8092 29.462C83.4686 30.3201 82.0114 30.9858 80.4377 31.4593C78.8931 31.9031 77.3048 32.125 75.6728 32.125Z" fill="#000"/>
</svg>
